<?xml version="1.0" standalone="no"?>
<!DOCTYPE svg PUBLIC "-//W3C//DTD SVG 20010904//EN"
 "http://www.w3.org/TR/2001/REC-SVG-20010904/DTD/svg10.dtd">
<svg version="1.0" xmlns="http://www.w3.org/2000/svg"
 width="640.000000pt" height="640.000000pt" viewBox="0 0 640.000000 640.000000"
 preserveAspectRatio="xMidYMid meet">
<metadata>
Created by potrace 1.11, written by Peter Selinger 2001-2013
</metadata>
<g transform="translate(0.000000,640.000000) scale(0.100000,-0.100000)"
fill="#000000" stroke="none">
<path d="M2978 6396 c-1 -2 -37 -7 -78 -10 -84 -8 -113 -11 -167 -20 -21 -4
-52 -8 -68 -10 -96 -12 -325 -69 -469 -117 -475 -159 -882 -409 -1234 -756
-111 -110 -165 -169 -277 -304 -44 -52 -166 -228 -219 -317 -79 -129 -154
-277 -211 -412 -26 -63 -51 -124 -56 -135 -44 -104 -142 -474 -155 -580 -1
-10 -12 -83 -20 -134 -27 -175 -26 -608 2 -811 24 -176 67 -372 114 -530 28
-90 91 -263 102 -275 4 -5 8 -14 8 -21 0 -40 164 -349 277 -521 129 -197 231
-321 418 -508 180 -181 410 -364 572 -456 32 -18 60 -35 63 -38 13 -15 214
-117 340 -173 127 -56 327 -129 393 -142 6 -2 19 -6 27 -9 20 -9 214 -53 270
-62 25 -4 54 -9 65 -11 11 -3 36 -7 55 -10 19 -3 46 -7 60 -9 77 -13 220 -20
410 -20 188 0 252 3 395 19 81 8 300 50 383 72 28 8 78 21 110 29 78 21 265
86 276 96 6 5 16 9 23 9 40 0 500 235 511 262 2 4 8 8 13 8 5 0 43 24 85 52
42 29 86 60 98 68 24 16 108 81 116 90 3 3 34 29 70 59 72 61 268 255 344 341
162 185 376 514 471 726 52 115 103 240 127 314 64 193 71 217 104 365 9 39
34 181 40 225 3 25 8 53 10 64 13 67 19 202 18 406 0 217 -4 287 -19 380 -3
19 -7 51 -9 70 -24 204 -144 646 -206 752 -5 10 -10 22 -10 27 0 15 -100 220
-153 316 -98 175 -256 401 -379 543 -78 89 -301 304 -398 383 -293 239 -629
426 -985 547 -119 40 -318 96 -385 107 -19 3 -46 8 -60 10 -32 7 -88 16 -120
20 -68 8 -138 18 -160 22 -29 5 -526 13 -532 9z"/>
</g>
</svg>
